<?xml version="1.0" encoding="utf-8"?>
<!-- Generator: Adobe Illustrator 23.1.0, SVG Export Plug-In . SVG Version: 6.00 Build 0)  -->
<svg version="1.1" id="Слой_1" xmlns="http://www.w3.org/2000/svg" xmlns:xlink="http://www.w3.org/1999/xlink" x="0px" y="0px"
	 viewBox="0 0 430 355" style="enable-background:new 0 0 430 355;" xml:space="preserve">
<style type="text/css">
	.st0{fill:#E6E6E6;}
</style>
<circle class="st0" cx="5.9" cy="37.1" r="5.9"/>
<circle class="st0" cx="5.9" cy="77.1" r="5.9"/>
<circle class="st0" cx="5.9" cy="116.1" r="5.9"/>
<circle class="st0" cx="5.9" cy="156.1" r="5.9"/>
<circle class="st0" cx="5.9" cy="195.2" r="5.9"/>
<circle class="st0" cx="5.9" cy="234.2" r="5.9"/>
<circle class="st0" cx="5.9" cy="273.2" r="5.9"/>
<circle class="st0" cx="5.9" cy="311.2" r="5.9"/>
<circle class="st0" cx="5.9" cy="349.2" r="5.9"/>
<circle class="st0" cx="158" cy="37.1" r="5.9"/>
<circle class="st0" cx="158" cy="77.1" r="5.9"/>
<circle class="st0" cx="158" cy="116.1" r="5.9"/>
<circle class="st0" cx="158" cy="156.1" r="5.9"/>
<circle class="st0" cx="158" cy="195.2" r="5.9"/>
<circle class="st0" cx="158" cy="234.2" r="5.9"/>
<circle class="st0" cx="158" cy="273.2" r="5.9"/>
<circle class="st0" cx="158" cy="311.2" r="5.9"/>
<circle class="st0" cx="158" cy="349.2" r="5.9"/>
<circle class="st0" cx="310" cy="37.1" r="5.9"/>
<circle class="st0" cx="310" cy="77.1" r="5.9"/>
<circle class="st0" cx="310" cy="116.1" r="5.9"/>
<circle class="st0" cx="310" cy="156.1" r="5.9"/>
<circle class="st0" cx="310" cy="195.2" r="5.9"/>
<circle class="st0" cx="310" cy="234.2" r="5.9"/>
<circle class="st0" cx="310" cy="273.2" r="5.9"/>
<circle class="st0" cx="310" cy="311.2" r="5.9"/>
<circle class="st0" cx="310" cy="349.2" r="5.9"/>
<circle class="st0" cx="81.9" cy="37.1" r="5.9"/>
<circle class="st0" cx="81.9" cy="77.1" r="5.9"/>
<circle class="st0" cx="81.9" cy="116.1" r="5.9"/>
<circle class="st0" cx="81.9" cy="156.1" r="5.9"/>
<circle class="st0" cx="81.9" cy="195.2" r="5.9"/>
<circle class="st0" cx="81.9" cy="234.2" r="5.9"/>
<circle class="st0" cx="81.9" cy="273.2" r="5.9"/>
<circle class="st0" cx="81.9" cy="311.2" r="5.9"/>
<circle class="st0" cx="81.9" cy="349.2" r="5.9"/>
<circle class="st0" cx="234" cy="37.1" r="5.9"/>
<circle class="st0" cx="234" cy="77.1" r="5.9"/>
<circle class="st0" cx="234" cy="116.1" r="5.9"/>
<circle class="st0" cx="234" cy="156.1" r="5.9"/>
<circle class="st0" cx="234" cy="195.2" r="5.9"/>
<circle class="st0" cx="234" cy="234.2" r="5.9"/>
<circle class="st0" cx="234" cy="273.2" r="5.9"/>
<circle class="st0" cx="234" cy="311.2" r="5.9"/>
<circle class="st0" cx="234" cy="349.2" r="5.9"/>
<circle class="st0" cx="386.1" cy="37.1" r="5.9"/>
<circle class="st0" cx="386.1" cy="77.1" r="5.9"/>
<circle class="st0" cx="386.1" cy="116.1" r="5.9"/>
<circle class="st0" cx="386.1" cy="156.1" r="5.9"/>
<circle class="st0" cx="386.1" cy="195.2" r="5.9"/>
<circle class="st0" cx="386.1" cy="234.2" r="5.9"/>
<circle class="st0" cx="386.1" cy="273.2" r="5.9"/>
<circle class="st0" cx="386.1" cy="311.2" r="5.9"/>
<circle class="st0" cx="386.1" cy="349.2" r="5.9"/>
<circle class="st0" cx="43.9" cy="37.1" r="5.9"/>
<circle class="st0" cx="43.9" cy="77.1" r="5.9"/>
<circle class="st0" cx="43.9" cy="116.1" r="5.9"/>
<circle class="st0" cx="43.9" cy="156.1" r="5.9"/>
<circle class="st0" cx="43.9" cy="195.2" r="5.9"/>
<circle class="st0" cx="43.9" cy="234.2" r="5.9"/>
<circle class="st0" cx="43.9" cy="273.2" r="5.9"/>
<circle class="st0" cx="43.9" cy="311.2" r="5.9"/>
<circle class="st0" cx="43.9" cy="349.2" r="5.9"/>
<circle class="st0" cx="196" cy="37.1" r="5.9"/>
<circle class="st0" cx="196" cy="77.1" r="5.9"/>
<circle class="st0" cx="196" cy="116.1" r="5.9"/>
<circle class="st0" cx="196" cy="156.1" r="5.9"/>
<circle class="st0" cx="196" cy="195.2" r="5.9"/>
<circle class="st0" cx="196" cy="234.2" r="5.9"/>
<circle class="st0" cx="196" cy="273.2" r="5.9"/>
<circle class="st0" cx="196" cy="311.2" r="5.9"/>
<circle class="st0" cx="196" cy="349.2" r="5.9"/>
<circle class="st0" cx="348.1" cy="37.1" r="5.9"/>
<circle class="st0" cx="348.1" cy="77.1" r="5.9"/>
<circle class="st0" cx="348.1" cy="116.1" r="5.9"/>
<circle class="st0" cx="348.1" cy="156.1" r="5.9"/>
<circle class="st0" cx="348.1" cy="195.2" r="5.9"/>
<circle class="st0" cx="348.1" cy="234.2" r="5.9"/>
<circle class="st0" cx="348.1" cy="273.2" r="5.9"/>
<circle class="st0" cx="348.1" cy="311.2" r="5.9"/>
<circle class="st0" cx="348.1" cy="349.2" r="5.9"/>
<circle class="st0" cx="120" cy="37.1" r="5.9"/>
<circle class="st0" cx="120" cy="77.1" r="5.9"/>
<circle class="st0" cx="120" cy="116.1" r="5.9"/>
<circle class="st0" cx="120" cy="156.1" r="5.9"/>
<circle class="st0" cx="120" cy="195.2" r="5.9"/>
<circle class="st0" cx="120" cy="234.2" r="5.9"/>
<circle class="st0" cx="120" cy="273.2" r="5.9"/>
<circle class="st0" cx="120" cy="311.2" r="5.9"/>
<circle class="st0" cx="120" cy="349.2" r="5.9"/>
<circle class="st0" cx="272" cy="37.1" r="5.9"/>
<circle class="st0" cx="272" cy="77.1" r="5.9"/>
<circle class="st0" cx="272" cy="116.1" r="5.9"/>
<circle class="st0" cx="272" cy="156.1" r="5.9"/>
<circle class="st0" cx="272" cy="195.2" r="5.9"/>
<circle class="st0" cx="272" cy="234.2" r="5.9"/>
<circle class="st0" cx="272" cy="273.2" r="5.9"/>
<circle class="st0" cx="272" cy="311.2" r="5.9"/>
<circle class="st0" cx="272" cy="349.2" r="5.9"/>
<circle class="st0" cx="424.1" cy="37.1" r="5.9"/>
<circle class="st0" cx="424.1" cy="77.1" r="5.9"/>
<circle class="st0" cx="424.1" cy="116.1" r="5.9"/>
<circle class="st0" cx="424.1" cy="156.1" r="5.9"/>
<circle class="st0" cx="424.1" cy="195.2" r="5.9"/>
<circle class="st0" cx="424.1" cy="234.2" r="5.9"/>
<circle class="st0" cx="424.1" cy="273.2" r="5.9"/>
<circle class="st0" cx="424.1" cy="311.2" r="5.9"/>
<circle class="st0" cx="424.1" cy="349.2" r="5.9"/>
</svg>
